<?xml version="1.0" standalone="no"?>
<!DOCTYPE svg PUBLIC "-//W3C//DTD SVG 20010904//EN"
 "http://www.w3.org/TR/2001/REC-SVG-20010904/DTD/svg10.dtd">
<svg version="1.0" xmlns="http://www.w3.org/2000/svg"
 width="300.000000pt" height="300.000000pt" viewBox="0 0 300.000000 300.000000"
 preserveAspectRatio="xMidYMid meet">
<metadata>
Created by potrace 1.10, written by Peter Selinger 2001-2011
</metadata>
<g transform="translate(0.000000,300.000000) scale(0.100000,-0.100000)"
fill="#2daaff" stroke="none">
<path d="M1245 2790 c-205 -41 -404 -133 -568 -264 l-38 -30 85 -85 c111 -113
127 -159 73 -209 -56 -51 -95 -37 -208 74 l-85 85 -30 -38 c-91 -114 -172
-261 -219 -397 -28 -83 -65 -256 -65 -306 l0 -30 131 0 131 0 29 -29 c39 -40
39 -82 0 -122 l-29 -29 -131 0 -131 0 0 -30 c0 -50 37 -223 65 -306 47 -136
128 -283 219 -397 l30 -38 85 85 c113 111 159 127 209 73 51 -57 37 -95 -74
-208 l-85 -86 53 -40 c117 -89 251 -163 378 -206 83 -28 261 -67 309 -67 l31
0 0 131 0 131 29 29 c20 20 39 29 61 29 22 0 41 -9 61 -29 l29 -29 0 -131 0
-131 30 0 c50 0 223 37 306 65 136 47 283 128 397 219 l38 30 -85 85 c-111
113 -125 152 -74 208 50 54 96 38 209 -73 l85 -85 30 38 c91 114 172 261 219
397 28 83 65 256 65 306 l0 30 -131 0 -131 0 -29 29 c-39 40 -39 82 0 122 l29
29 131 0 131 0 0 30 c0 50 -37 223 -65 306 -47 136 -128 283 -219 397 l-30 38
-85 -85 c-113 -111 -152 -125 -208 -74 -54 50 -38 96 73 209 l85 85 -38 30
c-114 91 -261 172 -397 219 -83 28 -256 65 -306 65 l-30 0 0 -129 c0 -123 -1
-131 -24 -158 -34 -39 -98 -39 -132 0 -23 27 -24 35 -24 158 l0 129 -37 -1
c-21 0 -79 -9 -128 -19z m505 -475 c146 -47 232 -98 339 -199 110 -105 175
-211 227 -366 26 -79 28 -96 28 -250 0 -154 -2 -171 -28 -250 -52 -155 -117
-261 -227 -366 -107 -101 -191 -151 -339 -200 -79 -26 -96 -28 -250 -28 -154
0 -171 2 -250 28 -148 49 -232 99 -339 200 -110 105 -175 211 -227 366 -26 79
-28 96 -28 250 0 154 2 171 28 250 49 148 99 232 200 339 101 105 211 175 347
220 107 35 147 40 294 37 120 -3 152 -7 225 -31z"/>
<path d="M1420 2160 c-267 -37 -497 -240 -565 -500 -23 -85 -23 -235 0 -320
60 -228 256 -425 485 -486 40 -10 102 -17 160 -17 58 0 120 7 160 17 229 61
425 258 485 486 20 76 23 230 6 304 -17 69 -66 185 -95 221 l-25 30 -243 -242
c-242 -241 -244 -243 -286 -243 -59 0 -92 33 -92 92 0 42 2 44 243 286 l242
243 -30 25 c-36 29 -153 79 -216 93 -70 14 -169 20 -229 11z"/>
</g>
</svg>
